<?xml version="1.0" encoding="UTF-8" standalone="no"?>
<!-- Created with Inkscape (http://www.inkscape.org/) -->

<svg
   width="82.060516mm"
   height="48.267937mm"
   viewBox="0 0 82.060516 48.267937"
   version="1.1"
   id="svg1"
   xmlns:xlink="http://www.w3.org/1999/xlink"
   xmlns="http://www.w3.org/2000/svg"
   xmlns:svg="http://www.w3.org/2000/svg">
  <defs
     id="defs1">
    <linearGradient
       id="linear-gradient"
       x1="198.87"
       y1="113.79"
       x2="310.14999"
       y2="113.79"
       gradientTransform="translate(0,-0.01)"
       gradientUnits="userSpaceOnUse">
      <stop
         offset="0"
         stop-color="#00bef5"
         id="stop1" />
      <stop
         offset="1"
         stop-color="#007dc6"
         id="stop2" />
    </linearGradient>
    <linearGradient
       id="linear-gradient-2"
       x1="198.87"
       y1="118.14"
       x2="310.14999"
       y2="118.14"
       gradientTransform="translate(0,-0.01)"
       gradientUnits="userSpaceOnUse">
      <stop
         offset="0"
         stop-color="#fff"
         id="stop3" />
      <stop
         offset="1"
         stop-color="#fff"
         stop-opacity="0"
         id="stop4" />
    </linearGradient>
    <linearGradient
       id="linear-gradient-3"
       x1="258.32001"
       y1="92.309998"
       x2="255.14"
       y2="114.85"
       gradientUnits="userSpaceOnUse">
      <stop
         offset="0"
         stop-color="#13355c"
         id="stop5" />
      <stop
         offset="1"
         stop-color="#fff"
         stop-opacity="0"
         id="stop6" />
    </linearGradient>
    <linearGradient
       id="linear-gradient-4"
       x1="254.89"
       y1="53.669998"
       x2="253.50999"
       y2="98.919998"
       xlink:href="#linear-gradient" />
    <linearGradient
       id="linear-gradient-5"
       x1="244.69"
       y1="17.620001"
       x2="254.89"
       y2="76.760002"
       xlink:href="#linear-gradient-2" />
    <linearGradient
       id="linear-gradient-6"
       x1="359.82001"
       y1="113.79"
       x2="471.10001"
       y2="113.79"
       gradientTransform="matrix(-1,0,0,1,471.1,-0.01)"
       gradientUnits="userSpaceOnUse">
      <stop
         offset="0"
         stop-color="#e4e61d"
         id="stop11" />
      <stop
         offset=".99"
         stop-color="#5fbd3f"
         id="stop12" />
    </linearGradient>
    <linearGradient
       id="linear-gradient-7"
       x1="359.82001"
       y1="118.14"
       x2="471.10001"
       y2="118.14"
       gradientTransform="matrix(-1,0,0,1,471.1,-0.01)"
       xlink:href="#linear-gradient-2" />
    <linearGradient
       id="linear-gradient-8"
       x1="419.26999"
       y1="92.279999"
       x2="416.10001"
       y2="114.78"
       gradientTransform="matrix(-1,0,0,1,471.1,0)"
       gradientUnits="userSpaceOnUse">
      <stop
         offset="0"
         stop-color="#085c2d"
         id="stop15" />
      <stop
         offset="1"
         stop-color="#fff"
         stop-opacity="0"
         id="stop16" />
    </linearGradient>
    <linearGradient
       id="linear-gradient-9"
       x1="415.84"
       y1="53.669998"
       x2="414.45999"
       y2="98.919998"
       gradientTransform="matrix(-1,0,0,1,471.1,0)"
       xlink:href="#linear-gradient-6" />
    <linearGradient
       id="linear-gradient-10"
       x1="405.64001"
       y1="17.620001"
       x2="415.84"
       y2="76.760002"
       gradientTransform="matrix(-1,0,0,1,471.1,0)"
       xlink:href="#linear-gradient-2" />
    <linearGradient
       id="linear-gradient-11"
       x1="181.87"
       y1="-4.21"
       x2="134.5"
       y2="164.48"
       gradientUnits="userSpaceOnUse">
      <stop
         offset="0"
         stop-color="#ffdc00"
         id="stop21" />
      <stop
         offset="1"
         stop-color="#007dc6"
         id="stop22" />
    </linearGradient>
    <linearGradient
       id="linear-gradient-12"
       x1="150.36"
       y1="89.949997"
       x2="162.91"
       y2="93.309998"
       xlink:href="#linear-gradient-3" />
    <linearGradient
       id="linear-gradient-13"
       x1="174.11"
       y1="-3.6400001"
       x2="127.37"
       y2="162.78999"
       xlink:href="#linear-gradient-11" />
    <linearGradient
       id="linear-gradient-14"
       x1="181.87"
       y1="-4.21"
       x2="134.5"
       y2="164.48"
       xlink:href="#linear-gradient-2" />
    <linearGradient
       xlink:href="#linear-gradient"
       id="linearGradient30"
       gradientUnits="userSpaceOnUse"
       gradientTransform="translate(0,-0.01)"
       x1="198.87"
       y1="113.79"
       x2="310.14999"
       y2="113.79" />
    <linearGradient
       xlink:href="#linear-gradient-2"
       id="linearGradient31"
       gradientUnits="userSpaceOnUse"
       gradientTransform="translate(0,-0.01)"
       x1="198.87"
       y1="118.14"
       x2="310.14999"
       y2="118.14" />
    <linearGradient
       xlink:href="#linear-gradient-3"
       id="linearGradient32"
       gradientUnits="userSpaceOnUse"
       x1="258.32001"
       y1="92.309998"
       x2="255.14"
       y2="114.85" />
    <linearGradient
       xlink:href="#linear-gradient-6"
       id="linearGradient33"
       gradientUnits="userSpaceOnUse"
       gradientTransform="matrix(-1,0,0,1,471.1,-0.01)"
       x1="359.82001"
       y1="113.79"
       x2="471.10001"
       y2="113.79" />
    <linearGradient
       xlink:href="#linear-gradient-11"
       id="linearGradient34"
       gradientUnits="userSpaceOnUse"
       x1="181.87"
       y1="-4.21"
       x2="134.5"
       y2="164.48" />
  </defs>
  <g
     id="g33"
     transform="scale(0.26458333)">
    <g
       id="g30">
      <g
         id="g23">
        <path
           class="cls-2"
           d="m 198.87,117.35 v 23.9 c 0,5.89 5.97,9.9 11.43,7.67 l 92.54,-37.9 c 4.42,-1.81 7.31,-6.12 7.31,-10.9 V 86.55 c 0,-5.93 -5.89,-10.05 -11.46,-8.02 l -97.49,35.49 c -1.4,0.51 -2.33,1.84 -2.33,3.33 z"
           id="path19"
           style="fill:url(#linearGradient30);stroke-width:0px" />
        <path
           class="cls-15"
           d="m 198.87,127.23 v 14.02 c 0,5.89 5.97,9.9 11.43,7.67 l 92.54,-37.9 c 4.42,-1.81 7.31,-6.12 7.31,-10.9 v -13.4 z"
           id="path20"
           style="opacity:0.7;mix-blend-mode:overlay;fill:url(#linearGradient31);stroke-width:0px" />
        <path
           class="cls-11"
           d="m 203.67,114.84 v 23.13 c 0,5.73 5.82,9.64 11.12,7.46 l 86.62,-35.47 c 4.42,-1.81 7.31,-6.12 7.31,-10.9 V 85.65 c 0,-4.41 -4.38,-7.47 -8.52,-5.96 l -96.54,35.14 z"
           id="path21"
           style="opacity:0.83;mix-blend-mode:multiply;fill:url(#linearGradient32);stroke-width:0px" />
        <path
           class="cls-8"
           d="m 310.15,91.2 v -6.29 c 0,-6.39 -3.86,-12.14 -9.77,-14.56 L 210.3,33.46 c -5.45,-2.23 -11.43,1.78 -11.43,7.67 v 23.9 c 0,1.49 0.93,2.82 2.33,3.33 l 93.14,33.91 c 7.68,2.8 15.81,-2.89 15.81,-11.07 z"
           id="path22"
           style="fill:url(#linear-gradient-4);stroke-width:0px" />
        <path
           class="cls-14"
           d="m 310.15,84.91 v 0 c 0,-6.39 -3.86,-12.14 -9.77,-14.56 L 210.3,33.46 c -5.45,-2.23 -11.43,1.78 -11.43,7.67 v 24.09 c 0,1.4 0.82,2.66 2.1,3.23 v 0 -15.95 c 0,-5.89 5.98,-9.9 11.43,-7.67 z"
           id="path23"
           style="opacity:0.7;mix-blend-mode:overlay;fill:url(#linear-gradient-5);stroke-width:0px" />
      </g>
      <g
         id="g29">
        <path
           class="cls-10"
           d="M 11.46,78.53 C 5.89,76.5 0,80.63 0,86.55 v 13.57 c 0,4.78 2.89,9.09 7.31,10.9 l 92.54,37.9 c 5.45,2.23 11.43,-1.78 11.43,-7.67 v -23.9 c 0,-1.49 -0.93,-2.82 -2.33,-3.33 z"
           id="path24"
           style="fill:url(#linearGradient33);stroke-width:0px" />
        <path
           class="cls-13"
           d="m 0,86.72 v 13.4 c 0,4.78 2.89,9.09 7.31,10.9 l 92.54,37.9 c 5.45,2.23 11.43,-1.78 11.43,-7.67 v -14.02 z"
           id="path25"
           style="opacity:0.7;mix-blend-mode:overlay;fill:url(#linear-gradient-7);stroke-width:0px" />
        <path
           class="cls-1"
           d="M 9.94,79.7 C 5.8,78.19 1.42,81.26 1.42,85.66 v 13.41 c 0,4.78 2.89,9.09 7.31,10.9 l 86.3,35.34 c 5.46,2.24 11.44,-1.78 11.44,-7.68 v -22.79 z"
           id="path26"
           style="mix-blend-mode:multiply;fill:url(#linear-gradient-8);stroke-width:0px" />
        <path
           class="cls-9"
           d="m 15.81,102.27 93.14,-33.91 c 1.4,-0.51 2.33,-1.84 2.33,-3.33 v -23.9 c 0,-5.89 -5.97,-9.9 -11.43,-7.67 L 9.77,70.36 C 3.86,72.78 0,78.53 0,84.92 v 6.29 c 0,8.18 8.12,13.86 15.81,11.07 z"
           id="path27"
           style="fill:url(#linear-gradient-9);stroke-width:0px" />
        <path
           class="cls-6"
           d="m 0,84.91 v 0 C 0,78.52 3.86,72.77 9.77,70.35 L 99.85,33.46 c 5.45,-2.23 11.43,1.78 11.43,7.67 v 24.09 c 0,1.4 -0.82,2.66 -2.1,3.23 v 0 -15.95 c 0,-5.89 -5.98,-9.9 -11.43,-7.67 z"
           id="path28"
           style="opacity:0.7;mix-blend-mode:overlay;fill:url(#linear-gradient-10);stroke-width:0px" />
      </g>
    </g>
    <g
       id="g32">
      <path
         class="cls-3"
         d="m 198.92,6.09 -55.04,162.53 c -2.79,8.25 -10.54,13.81 -19.25,13.81 h -9.05 c -3.15,0 -5.38,-3.1 -4.37,-6.08 L 166.19,13.82 C 168.98,5.56 176.73,0 185.44,0 h 9.11 c 3.15,0 5.38,3.1 4.37,6.09 z"
         id="path29"
         style="fill:url(#linearGradient34);stroke-width:0px" />
      <path
         class="cls-7"
         d="m 198.92,6.09 -55.04,162.53 c -2.79,8.25 -10.54,13.81 -19.25,13.81 h -9.05 c -3.15,0 -5.38,-3.1 -4.37,-6.08 L 166.19,13.82 C 168.98,5.56 176.73,0 185.44,0 h 9.11 c 3.15,0 5.38,3.1 4.37,6.09 z"
         id="path30"
         style="opacity:0.83;mix-blend-mode:multiply;fill:url(#linear-gradient-12);stroke-width:0px" />
      <path
         class="cls-4"
         d="m 166.19,13.82 -54.97,162.53 c -1.01,2.99 1.21,6.08 4.37,6.08 h 8.16 L 185.44,0 v 0 c -8.72,0 -16.46,5.56 -19.25,13.81 z"
         id="path31"
         style="fill:url(#linear-gradient-13);stroke-width:0px" />
      <path
         class="cls-5"
         d="m 190.22,6.09 h 8.7 C 199.93,3.1 197.71,0 194.55,0 h -9.12 c -8.72,0 -16.46,5.56 -19.26,13.82 l -54.96,162.53 c -1.01,2.99 1.21,6.08 4.37,6.08 H 116 L 170.97,19.9 c 2.79,-8.26 10.54,-13.82 19.26,-13.82 z"
         id="path32"
         style="opacity:0.7;mix-blend-mode:overlay;fill:url(#linear-gradient-14);stroke-width:0px" />
    </g>
  </g>
</svg>
